<?xml version="1.0" encoding="utf-8"?>
<!-- Generator: Adobe Illustrator 19.0.0, SVG Export Plug-In . SVG Version: 6.00 Build 0)  -->
<svg version="1.1" id="Layer_1" xmlns="http://www.w3.org/2000/svg" xmlns:xlink="http://www.w3.org/1999/xlink" x="0px" y="0px"
	 width="74.8px" height="8.8px" viewBox="-10.5 37.6 74.8 8.8" style="enable-background:new -10.5 37.6 74.8 8.8;"
	 xml:space="preserve">
<style type="text/css">
	.st0{fill:#EC1C24;}
	.st1{fill:#0054A5;}
</style>
<g>
	<path class="st0" d="M-6.5,46.2V43c0-0.8-0.4-1.5-1.2-1.5S-9,42.2-9,43v3.2h-1.5v-6h1.4l0.1,0.7c0.3-0.6,1-0.8,1.6-0.8
		c0.7,0,1.4,0.3,1.8,1.1c0.5-0.9,1.2-1.1,2-1.1c1.7,0,2.6,1.1,2.6,2.9v3.3h-1.6v-3.4c0-0.8-0.3-1.5-1.1-1.5S-5,42.2-5,43v3.2H-6.5z"
		/>
	<path class="st0" d="M6.5,43.2c0,1.7-1.2,3.1-3.1,3.1s-3.1-1.4-3.1-3.1c0-1.7,1.2-3.1,3.1-3.1C5.2,40,6.5,41.5,6.5,43.2z M1.7,43.2
		c0,0.9,0.6,1.8,1.6,1.8s1.6-0.9,1.6-1.8c0-0.9-0.6-1.8-1.6-1.8C2.2,41.4,1.7,42.3,1.7,43.2z"/>
	<path class="st0" d="M9,37.6v3.3c0.4-0.6,1.3-1,2-1c1.8,0,3.1,1.1,3.1,3.2c0,2-1.3,3.2-3.1,3.2c-0.7,0-1.5-0.2-1.9-1L9,46.1H7.6
		v-8.5H9z M9.1,43.2c0,1.1,0.8,1.8,1.8,1.8s1.7-0.7,1.7-1.8c0-1.1-0.8-1.8-1.7-1.8C9.9,41.4,9.1,42.1,9.1,43.2z"/>
	<path class="st0" d="M16.8,38.5c0,1.2-1.8,1.2-1.8,0C15,37.3,16.8,37.3,16.8,38.5z M15.1,40.1v6.1h1.5v-6.1H15.1z"/>
	<path class="st0" d="M19.4,37.6v4.9l2-2.4h1.8v0.1L20.7,43l2.8,3.1v0.1h-1.8l-2.4-2.7v2.7h-1.5v-8.6H19.4z"/>
	<path class="st0" d="M25.5,43.7c0.1,0.7,0.7,1.3,1.8,1.3c0.6,0,1.3-0.2,1.6-0.6l1,0.9c-0.6,0.7-1.7,1-2.6,1c-2.1,0-3.3-1.3-3.3-3.2
		c0-1.8,1.2-3.2,3.2-3.2s3.3,1.2,3,3.7L25.5,43.7L25.5,43.7z M28.8,42.5c-0.1-0.8-0.7-1.2-1.6-1.2c-0.8,0-1.5,0.4-1.7,1.2H28.8z"/>
</g>
<g>
	<path class="st1" d="M32.9,37.6v3.3c0.4-0.6,1.3-1,2-1c1.8,0,3.1,1.1,3.1,3.2c0,2-1.3,3.2-3.1,3.2c-0.7,0-1.5-0.2-1.9-1l-0.1,0.8
		h-1.4v-8.5H32.9z M33,43.2c0,1.1,0.8,1.8,1.8,1.8s1.7-0.7,1.7-1.8c0-1.1-0.8-1.8-1.7-1.8C33.8,41.4,33,42.1,33,43.2z"/>
	<path class="st1" d="M43.8,40.2h1.4v6h-1.4l-0.1-0.9c-0.3,0.7-1.3,1.1-2,1.1c-1.8,0-3.1-1.1-3.1-3.2c0-2.1,1.4-3.2,3.1-3.2
		c0.8,0,1.6,0.4,1.9,1L43.8,40.2z M40.2,43.2c0,1.1,0.8,1.8,1.8,1.8c2.3,0,2.3-3.7,0-3.7C41,41.4,40.2,42,40.2,43.2z"/>
</g>
<g>
	<path class="st1" d="M51.1,40.2v0.7l-2.8,3.9h2.8v1.5H46v-0.7l2.9-4.1h-2.7v-1.3H51.1z"/>
	<path class="st1" d="M56.8,40.2h1.4v6h-1.4l-0.1-0.9c-0.3,0.7-1.3,1.1-2,1.1c-1.8,0-3.1-1.1-3.1-3.2c0-2.1,1.4-3.2,3.1-3.2
		c0.8,0,1.6,0.4,1.9,1L56.8,40.2z M53.2,43.2c0,1.1,0.8,1.8,1.8,1.8c2.3,0,2.3-3.7,0-3.7C54,41.4,53.2,42,53.2,43.2z"/>
	<path class="st1" d="M60.9,40.2l0.1,0.7c0.5-0.7,1.1-0.9,1.7-0.9s1.2,0.2,1.6,0.6l-0.7,1.3c-0.3-0.3-0.6-0.4-1.1-0.4
		c-0.8,0-1.5,0.4-1.5,1.5v3.2h-1.5v-6C59.5,40.2,60.9,40.2,60.9,40.2z"/>
</g>
</svg>
